<svg width="25" height="26" viewBox="0 0 25 26" fill="none" xmlns="http://www.w3.org/2000/svg">
<path fill-rule="evenodd" clip-rule="evenodd" d="M1.95318 13.3438C1.95318 13.033 2.07664 12.7349 2.29642 12.5151C2.51618 12.2953 2.81425 12.1719 3.12506 12.1719H19.0469L14.7969 7.92188C14.5899 7.69973 14.4772 7.40591 14.4826 7.10231C14.488 6.79872 14.6109 6.50905 14.8256 6.29435C15.0404 6.07964 15.33 5.95665 15.6336 5.95129C15.9372 5.94594 16.231 6.05863 16.4532 6.26563L22.7032 12.5156C22.9226 12.7354 23.0459 13.0332 23.0459 13.3438C23.0459 13.6543 22.9226 13.9522 22.7032 14.1719L16.4532 20.4219C16.231 20.6289 15.9372 20.7416 15.6336 20.7362C15.33 20.7309 15.0404 20.6079 14.8256 20.3932C14.6109 20.1785 14.488 19.8888 14.4826 19.5852C14.4772 19.2816 14.5899 18.9878 14.7969 18.7656L19.0469 14.5156L3.12506 14.5156C2.81425 14.5156 2.51618 14.3922 2.29642 14.1724C2.07664 13.9526 1.95318 13.6546 1.95318 13.3438Z" fill="white"/>
</svg>
