<svg width="64" height="64" viewBox="0 0 64 64" fill="none" xmlns="http://www.w3.org/2000/svg">
<path d="M27.3254 17.9734C29.528 20.1787 30.632 21.28 32 21.28C33.3707 21.28 34.472 20.1787 36.6747 17.9734L41.352 13.2987C42.4374 12.2107 42.9814 11.6667 43.5467 11.3414C46.3894 9.69869 48.7334 11.328 50.7014 13.2987C52.672 15.2667 54.3014 17.6107 52.6587 20.4534C52.3334 21.0187 51.7894 21.5627 50.7014 22.648L46.0267 27.3254C43.8214 29.528 42.72 30.632 42.72 32C42.72 33.3707 43.8214 34.472 46.0267 36.6747L50.7014 41.352C51.7894 42.4374 52.3334 42.9814 52.6587 43.5467C54.3014 46.3894 52.672 48.7334 50.7014 50.7014C48.7334 52.672 46.3894 54.3014 43.5467 52.6587C42.9814 52.3334 42.4374 51.7894 41.352 50.7014L36.6747 46.0267C34.472 43.824 33.368 42.72 32 42.72C30.6294 42.72 29.528 43.824 27.3254 46.0267L22.648 50.7014C21.5627 51.7894 21.0187 52.3334 20.4534 52.6587C17.6107 54.3014 15.2667 52.672 13.2987 50.7014C11.328 48.7334 9.69869 46.3894 11.3414 43.5467C11.6667 42.9814 12.2107 42.4374 13.2987 41.352L17.9734 36.6747C20.1787 34.472 21.28 33.368 21.28 32C21.28 30.6294 20.176 29.528 17.9734 27.3254L13.2987 22.648C12.2107 21.5627 11.6667 21.0187 11.3414 20.4534C9.69869 17.6107 11.328 15.2667 13.2987 13.2987C15.2667 11.328 17.6107 9.69869 20.4534 11.3414C21.0187 11.6667 21.5627 12.2107 22.648 13.2987L27.3254 17.9734Z" stroke="#CDCDCD" stroke-width="3" stroke-linecap="round" stroke-linejoin="round"/>
</svg>
