<svg width="64" height="64" viewBox="0 0 64 64" fill="none" xmlns="http://www.w3.org/2000/svg">
<path fill-rule="evenodd" clip-rule="evenodd" d="M14.9973 11.7974C10.5733 13.8187 7.33331 18.6294 7.33331 24.3654C7.33331 30.224 9.73331 34.7414 13.168 38.6133C16.0026 41.8027 19.432 44.448 22.776 47.024C23.5724 47.6374 24.3591 48.2489 25.136 48.8587C26.5386 49.9654 27.7893 50.9333 28.9973 51.64C30.2053 52.3467 31.1733 52.6667 32 52.6667C32.8266 52.6667 33.7973 52.3467 35.0026 51.64C36.2106 50.9333 37.4613 49.9654 38.864 48.8587C39.6409 48.2471 40.4275 47.6365 41.224 47.0267C44.568 44.4454 47.9973 41.8027 50.832 38.6133C54.2693 34.7414 56.6666 30.224 56.6666 24.3654C56.6666 18.632 53.4266 13.8187 49.0026 11.7974C44.704 9.83202 38.928 10.352 33.44 16.056C33.2534 16.2496 33.0297 16.4035 32.7823 16.5087C32.5349 16.6139 32.2688 16.6681 32 16.6681C31.7311 16.6681 31.4651 16.6139 31.2176 16.5087C30.9702 16.4035 30.7465 16.2496 30.56 16.056C25.072 10.352 19.296 9.83202 14.9973 11.7974ZM32 11.8934C25.8346 6.37335 18.9306 5.60002 13.3333 8.15735C7.42931 10.864 3.33331 17.136 3.33331 24.368C3.33331 31.4747 6.29331 36.8987 10.1786 41.272C13.288 44.7734 17.0933 47.704 20.456 50.2907C21.2204 50.8773 21.9546 51.448 22.6586 52.0027C24.0266 53.08 25.4933 54.2267 26.9786 55.096C28.464 55.9653 30.16 56.6693 32 56.6693C33.84 56.6693 35.536 55.9627 37.0213 55.096C38.5093 54.2267 39.9733 53.08 41.3413 52.0027C42.0453 51.448 42.7795 50.8773 43.544 50.2907C46.904 47.704 50.712 44.7707 53.8213 41.272C57.7066 36.8987 60.6666 31.4747 60.6666 24.368C60.6666 17.136 56.5733 10.864 50.6666 8.16269C45.0693 5.60269 38.1653 6.37602 32 11.8934Z" fill="#D27856"/>
</svg>
