<svg width="80" height="80" viewBox="0 0 80 80" fill="none" xmlns="http://www.w3.org/2000/svg">
<path d="M27.3125 40.3125L25.575 41.375C25.575 41.375 26.5 44.7563 26.8687 46.6C27.2375 48.4438 27.6687 49.8563 28.1625 50.7813C28.9312 52.225 30.925 52.3375 31.6937 51.75C33.2937 50.5375 34.1375 46.8625 34.1375 46.8625C34.1375 46.8625 34.9812 43.8375 35.4437 42.2063C35.8187 40.875 36.7062 38.8875 36.7062 38.8875L39.7187 40.3188C39.7187 40.3188 39.55 43.3313 40.6687 45.8375C41.7437 48.2438 44.6 50.6 45.8 51.3375C47 52.075 48.15 52.4875 47.9187 53.7375C47.6875 54.9813 46.0312 57.7 44.925 59.0875C43.8187 60.4688 41.0187 64.5688 40.4062 66C39.6812 67.6875 38.9312 69.55 40.6812 70.0563C42.4312 70.5625 45.0312 66.9501 45.0312 66.9501L53.5437 55.025C53.5437 55.025 53.5875 54.3813 52.9 53.5938C52.2062 52.8125 51.975 52.35 51.6062 51.3375C51.2375 50.325 51.1 47.1438 51.1 47.1438C51.1 47.1438 54.0938 41.5688 54.65 40.875C55.2062 40.1813 56.1688 38.8938 56.1688 38.8938C56.1688 38.8938 57.0375 41.7625 58.6125 44.425C60.3937 47.4375 63.9062 50.4875 67.1875 51.7375C70.5687 53.0313 73.7812 53.3188 76.175 53.4125C78.575 53.5063 79.9562 52.6875 79.6312 52.1375C79.3063 51.5813 73.175 50.7875 73.175 50.7875L62.4375 43.8625L57.825 32.3375L49.025 25.05L36.9 25.375L28.7375 38.4188C28.7375 38.4188 29.8875 41.1875 29.9812 41.6938C30.075 42.2 29.9375 45.1063 29.9375 45.1063C29.9375 45.1063 29.6 43.9563 29.3375 43.075C29.15 42.4563 29.1062 41.3688 29.1062 41.3688L27.3125 40.3125Z" fill="#865B52"/>
<path d="M20.8562 23.6687C20.8562 23.6687 24.7187 19.8937 25.975 18.2312C27.975 15.5875 29.4312 12.0562 27.8187 10.8562C26.2062 9.65621 23.3 12.425 21.6875 14.5875C20.075 16.75 18.475 20.2125 18.1062 19.3375C17.7375 18.4625 19.475 16.375 20.5937 14.575C21.1687 13.65 22.7125 11.95 23.3875 10.4875C23.975 9.21871 23.8375 8.14371 22.925 7.66246C20.8937 6.58746 17.6687 9.68121 16.6125 11.7812C15.125 14.7312 14.6312 18.1437 14.6312 18.1437C14.6312 18.1437 12.1875 17.8687 10.0187 19.525C8.45624 20.7187 7.61874 23.2125 6.79374 23.675C5.96249 24.1375 2.86249 25.5812 2.86249 25.5812C2.86249 25.5812 0.406243 28.375 2.69374 30.6812C3.74999 31.7437 4.67499 32.525 6.84374 32.5687C8.73124 32.6062 12.7 30.3125 14.4062 30.6312C16.1125 30.95 17.7875 35.2937 19.0625 36.9437C20.7687 39.1562 23.0437 40.7562 24.75 41.2125C26.4562 41.675 29.9875 41.6875 29.9875 41.6875C29.9875 41.6875 29.9437 40.1187 29.6625 39.4312C29.3875 38.7375 29.0187 38.1375 29.4312 37.8187C29.8437 37.4937 30.7687 38.9687 30.7687 40.2625C30.7687 41.5562 30.4937 44.6437 30.4437 46.0687C30.4 47.5 30.075 50.2625 31.9187 50.9562C33.7625 51.65 35.5 50.2062 35.8687 49.6937C36.2375 49.1875 37.0375 48.4187 36.9 48.05C36.7625 47.6812 35.7 46.7125 34.9625 46.6187C34.225 46.525 33.4437 46.6812 33.4437 46.6812C33.4437 46.6812 33.6875 44.8375 34.0562 43.5437C34.425 42.25 34.9625 39.2437 34.825 37.4C34.6875 35.5562 33.075 33.575 33.625 32.9312C34.175 32.2875 34.9625 32.8375 35.5625 34.4062C36.1625 35.975 36.1625 37.4 36.1187 38.6C36.075 39.8 35.8437 40.9062 35.8437 40.9062C35.8437 40.9062 38.0062 40.8062 38.9812 40.7687C40.0875 40.725 41.8875 40.4437 41.8875 40.4437C41.8875 40.4437 41.4375 36.8437 41.6125 34.9125C41.8437 32.3312 43.5312 29.675 44.825 28.425C46.1187 27.1812 47.8812 25.7812 48.2062 26.5687C48.5312 27.35 45.75 29.0437 44.6125 30.9937C43.5312 32.8437 42.3562 36.6625 43.6875 40.6312C45.025 44.5937 47.6062 47.775 49.125 48.9312C50.6437 50.0812 53.1812 50.775 53.0875 52.85C52.9937 54.925 48.7562 60.0437 47.5125 61.9312C46.2687 63.8187 44.4687 65.85 44.15 67.6C43.825 69.35 43.5937 71.2437 45.9 70.225C48.2062 69.2125 51.1062 63.5875 52.3562 61.925C53.6 60.2625 55.7687 56.8062 57.15 55.0125C58.5312 53.2125 59.0875 53.0312 58.95 51.7875C58.8125 50.5437 55.9562 49.3 55.3062 47.4562C54.6562 45.6125 54.5687 40.725 55.3062 39.1125C56.0437 37.5 56.825 36.3437 56.825 36.3437C56.825 36.3437 59.5812 42.8937 61.4812 45.3812C64.0312 48.7187 68.5312 51.2812 73.975 52.0187C79.4125 52.7562 80.7875 52.1937 78.725 51.4625C77.9437 51.1875 75.825 50.3687 73.6875 49.2937C71.6562 48.2812 68.4937 46.7437 66.05 43.0687C63.3437 39 62.225 31.3625 57.4312 25.6C53.4687 20.8375 45.875 16.65 37.1937 20.1625C31.1562 22.6062 29.0375 28.9687 25.3937 28.3187C21.7312 27.6812 20.8562 23.6687 20.8562 23.6687Z" fill="#D27856"/>
<path d="M19.6125 21.6125C20.5687 22.2937 23.0562 19.4187 24.1937 17.925C25.825 15.775 26.7812 13.7687 26.1 13.2562C25.1187 12.5187 23.0562 15.0375 21.8875 16.7875C20.375 19.05 18.9687 21.15 19.6125 21.6125Z" fill="#FFD2AF"/>
<path d="M13.4875 24.55C13.5875 25.85 12.9687 26.4625 12.2875 26.5062C11.6062 26.55 10.9812 25.725 10.925 24.8375C10.8687 23.95 11.3812 23.1937 12.0687 23.15C12.75 23.1062 13.4187 23.6625 13.4875 24.55Z" fill="#010102"/>
<path d="M3.3875 25.45C4.00625 25.8625 4.10625 27.475 3.88125 28.1875C3.6375 28.9562 2.93125 30.2437 2.1 29.9062C1.6375 29.7187 0.437497 27.4187 0.687497 26.8C0.924997 26.1875 3.01875 25.2062 3.3875 25.45ZM3.75625 31.4437C3.75625 31.4437 4.9875 31.0437 5.41875 30.6437C5.85 30.2437 6.4625 29.7187 6.925 29.9062C7.3875 30.0937 7.5375 30.7687 6.68125 31.4437C6.03125 31.9562 5.175 32.2125 5.175 32.2125C5.175 32.2125 4.65 32.2437 4.225 32.0562C3.975 31.9562 3.69375 31.6 3.75625 31.4437Z" fill="#2C302B"/>
</svg>
