<svg width="32" height="32" viewBox="0 0 32 32" fill="none" xmlns="http://www.w3.org/2000/svg">
<path d="M21.3239 18.6666H20.2705L19.8972 18.3066C20.7305 17.3386 21.3395 16.1983 21.6806 14.9675C22.0217 13.7366 22.0866 12.4455 21.8705 11.1866C21.2439 7.47997 18.1505 4.51997 14.4172 4.06663C13.1047 3.90059 11.7716 4.037 10.5199 4.46542C9.26821 4.89384 8.13112 5.60292 7.19564 6.53841C6.26015 7.47389 5.55107 8.61098 5.12264 9.86267C4.69422 11.1144 4.55781 12.4475 4.72386 13.76C5.17719 17.4933 8.13719 20.5866 11.8439 21.2133C13.1027 21.4294 14.3938 21.3645 15.6247 21.0234C16.8556 20.6822 17.9958 20.0732 18.9639 19.24L19.3239 19.6133V20.6666L24.9905 26.3333C25.5372 26.88 26.4305 26.88 26.9772 26.3333C27.5239 25.7866 27.5239 24.8933 26.9772 24.3466L21.3239 18.6666ZM13.3239 18.6666C10.0039 18.6666 7.32386 15.9866 7.32386 12.6666C7.32386 9.34663 10.0039 6.66663 13.3239 6.66663C16.6439 6.66663 19.3239 9.34663 19.3239 12.6666C19.3239 15.9866 16.6439 18.6666 13.3239 18.6666Z" fill="white"/>
</svg>
